<?xml version="1.0" encoding="UTF-8"?>
<svg width="124px" height="36px" viewBox="0 0 124 36" version="1.1" xmlns="http://www.w3.org/2000/svg" xmlns:xlink="http://www.w3.org/1999/xlink">
    <!-- Generator: Sketch 48.2 (47327) - http://www.bohemiancoding.com/sketch -->
    <title>BI</title>
    <desc>Created with Sketch.</desc>
    <defs>
        <linearGradient x1="50%" y1="2.62476084%" x2="50%" y2="100%" id="linearGradient-1">
            <stop stop-color="#468CFF" offset="0%"></stop>
            <stop stop-color="#4F67FF" offset="100%"></stop>
        </linearGradient>
    </defs>
    <g id="BoxHero_features" stroke="none" stroke-width="1" fill="none" fill-rule="evenodd" transform="translate(-148.000000, -22.000000)">
        <g id="navi-white_login">
            <g id="BI" transform="translate(148.000000, 22.000000)">
                <g id="logotype" transform="translate(44.619718, 9.633803)" fill="#4F67FF">
                    <path d="M4.26255211,14.0844676 C5.05911549,14.0844676 5.61939718,13.885707 5.94491831,13.4866648 C6.27043944,13.0886366 6.4332,12.4588901 6.4332,11.5959042 C6.4332,10.6664958 6.26334085,9.99922817 5.92514366,9.59410141 C5.58694648,9.18948169 5.01246761,8.98666479 4.20322817,8.98666479 L3.32655211,8.98666479 L3.32655211,14.0844676 L4.26255211,14.0844676 Z M4.16317183,6.77596056 C4.95973521,6.77596056 5.50379155,6.59697465 5.79534085,6.23900282 C6.08739718,5.8800169 6.23443944,5.30959437 6.23443944,4.52621408 C6.23443944,3.8087493 6.04784789,3.29562254 5.67618592,2.98277746 C5.30503099,2.67094648 4.72700282,2.51477746 3.94412958,2.51477746 L3.32655211,2.51477746 L3.32655211,6.77596056 L4.16317183,6.77596056 Z M0.0612,0.265030986 L4.16317183,0.265030986 C5.72942535,0.265030986 6.94379155,0.566721127 7.80677746,1.17162254 C8.66976338,1.77500282 9.10125634,2.86717183 9.10125634,4.44660845 C9.10125634,5.4023831 8.89945352,6.15584789 8.49381972,6.70700282 C8.0892,7.2576507 7.50812958,7.59939718 6.75162254,7.73224225 C7.69421408,7.86458028 8.40103099,8.26362254 8.87258028,8.9268338 C9.34362254,9.59105915 9.57939718,10.500693 9.57939718,11.6552282 C9.57939718,14.8151155 8.01263662,16.3945521 4.88063662,16.3945521 L0.0612,16.3945521 L0.0612,0.265030986 Z" id="Fill-1"></path>
                    <path d="M17.1559775,13.6960225 C17.3481465,13.317769 17.4444845,12.7970366 17.4444845,12.1328113 L17.4444845,4.50638873 C17.4444845,3.84317746 17.3481465,3.32852958 17.1559775,2.96295211 C16.9633014,2.59838873 16.5885972,2.41534648 16.0303437,2.41534648 C15.4736113,2.41534648 15.097893,2.59838873 14.906231,2.96295211 C14.7125408,3.32852958 14.6167099,3.84317746 14.6167099,4.50638873 L14.6167099,12.1328113 C14.6167099,12.8102197 14.7100056,13.3339944 14.8955831,13.7066704 C15.0811606,14.0778254 15.4599211,14.2634028 16.0303437,14.2634028 C16.5885972,14.2634028 16.9633014,14.0742761 17.1559775,13.6960225 M12.3669634,15.2688676 C11.6363155,14.373431 11.2717521,13.0556282 11.2717521,11.3164732 L11.2717521,5.30295211 C11.2717521,3.56379718 11.6363155,2.25613521 12.3669634,1.3799662 C13.0960901,0.503290141 14.318062,0.0657126761 16.0303437,0.0657126761 C17.7299493,0.0657126761 18.9473577,0.507346479 19.6840901,1.39010704 C20.4213296,2.27337465 20.7899493,3.57698028 20.7899493,5.30295211 L20.7899493,11.3362479 C20.7899493,13.0622197 20.4213296,14.373431 19.6840901,15.2688676 C18.9473577,16.1653183 17.7299493,16.6130366 16.0303437,16.6130366 C14.318062,16.6130366 13.0960901,16.1653183 12.3669634,15.2688676" id="Fill-3"></path>
                    <polygon id="Fill-5" points="24.8725521 7.75211831 21.8054535 0.264625352 24.9121014 0.264625352 26.8241577 4.92383662 28.4167775 0.264625352 31.2050028 0.264625352 28.2773408 8.52890704 31.483369 16.3941465 28.4167775 16.3941465 26.3059606 11.2963437 24.4547493 16.3941465 21.6862986 16.3941465"></polygon>
                    <polygon id="Fill-7" points="37.0786817 0.264828169 40.3643155 0.264828169 40.3643155 6.87564507 43.2123718 6.87564507 43.2123718 0.264828169 46.4980056 0.264828169 46.4980056 16.3943493 43.2123718 16.3943493 43.2123718 9.24505352 40.3643155 9.24505352 40.3643155 16.3943493 37.0786817 16.3943493"></polygon>
                    <polygon id="Fill-9" points="48.9669465 0.264828169 55.9965803 0.264828169 55.9965803 2.53485634 52.2322986 2.53485634 52.2322986 6.81581408 55.1401859 6.81581408 55.1401859 9.10612394 52.2322986 9.10612394 52.2322986 14.1643775 56.0361296 14.1643775 56.0361296 16.3943493 48.9669465 16.3943493"></polygon>
                    <path d="M61.9490028,7.13540282 C62.718693,7.13540282 63.2602141,6.94576901 63.5720451,6.56700845 C63.883369,6.18875493 64.0400451,5.59450141 64.0400451,4.78475493 C64.0400451,3.98869859 63.9011155,3.40458592 63.6222423,3.03292394 C63.342862,2.66176901 62.838862,2.47517746 62.1082141,2.47517746 L60.9729465,2.47517746 L60.9729465,7.13540282 L61.9490028,7.13540282 Z M57.7075944,0.264980282 L61.8896789,0.264980282 C63.6283268,0.264980282 64.9364958,0.583909859 65.8126648,1.22075493 C66.6883268,1.85810704 67.1269183,2.95990986 67.1269183,4.52616338 C67.1269183,5.57472676 66.9798761,6.42098028 66.6883268,7.06492394 C66.3962704,7.70937465 65.8780732,8.1971493 65.1352563,8.52926197 L67.3657352,16.3945014 L64.0004958,16.3945014 L62.1680451,9.08599437 L60.9729465,9.08599437 L60.9729465,16.3945014 L57.7075944,16.3945014 L57.7075944,0.264980282 Z" id="Fill-11"></path>
                    <path d="M74.8434423,13.6960225 C75.0356113,13.317769 75.1319493,12.7970366 75.1319493,12.1328113 L75.1319493,4.50638873 C75.1319493,3.84317746 75.0356113,3.32852958 74.8434423,2.96295211 C74.6507662,2.59838873 74.276062,2.41534648 73.7178085,2.41534648 C73.1610761,2.41534648 72.7853577,2.59838873 72.5936958,2.96295211 C72.4000056,3.32852958 72.3041746,3.84317746 72.3041746,4.50638873 L72.3041746,12.1328113 C72.3041746,12.8102197 72.3969634,13.3339944 72.5825408,13.7066704 C72.7681183,14.0778254 73.1473859,14.2634028 73.7178085,14.2634028 C74.276062,14.2634028 74.6507662,14.0742761 74.8434423,13.6960225 M70.0544282,15.2688676 C69.3237803,14.373431 68.9592169,13.0556282 68.9592169,11.3164732 L68.9592169,5.30295211 C68.9592169,3.56379718 69.3237803,2.25613521 70.0544282,1.3799662 C70.7835549,0.503290141 72.0055268,0.0657126761 73.7178085,0.0657126761 C75.4174141,0.0657126761 76.6348225,0.507346479 77.3715549,1.39010704 C78.1087944,2.27337465 78.4774141,3.57698028 78.4774141,5.30295211 L78.4774141,11.3362479 C78.4774141,13.0622197 78.1087944,14.373431 77.3715549,15.2688676 C76.6348225,16.1653183 75.4174141,16.6130366 73.7178085,16.6130366 C72.0055268,16.6130366 70.7835549,16.1653183 70.0544282,15.2688676" id="Fill-13"></path>
                </g>
                <path d="M30.7891775,8.44757746 L16.4992056,0.197492958 C16.0438817,-0.0656619718 15.4820789,-0.0656619718 15.0262479,0.197492958 L0.736276056,8.44757746 C0.280952113,8.71073239 5.07042254e-05,9.19698592 5.07042254e-05,9.72329577 L5.07042254e-05,26.2234648 C5.07042254e-05,26.7497746 0.280952113,27.2360282 0.736276056,27.4991831 L15.0262479,35.7492676 C15.4820789,36.0124225 16.0438817,36.0124225 16.4992056,35.7492676 L18.6333465,34.5171549 L20.7953746,25.2200282 L15.7624732,28.1253803 L19.071938,16.2306761 L25.5220225,12.5059437 L23.4010648,20.1313521 L28.2103606,17.3547887 L19.3335718,34.1125352 L30.7891775,27.4991831 C31.2445014,27.2360282 31.5254028,26.7497746 31.5254028,26.2234648 L31.5254028,9.72329577 C31.5254028,9.19698592 31.2445014,8.71073239 30.7891775,8.44757746" id="symbol_gradient" fill="url(#linearGradient-1)"></path>
            </g>
        </g>
    </g>
</svg>